<svg width="200" height="200" xmlns="http://www.w3.org/2000/svg"><g fill="none" fill-rule="evenodd"><path fill="none" d="M0 0h200v200H0z"/><path fill="#C9D0DE" d="M8 133.43l70.062 40.19h.003l114.372-66.973-68.705-40.231z"/><path fill="#F9FBFC" d="M123.73 65L8 132.014l70.063 40.19 114.374-66.973L123.733 65z"/><path fill-opacity=".32" fill="#C9D0DE" d="M145.606 123.204l27.074-15.91-53.713-30.943-28.43 15.95zM86.243 158.797l50.594-29.634L83.124 98.22l-51.951 29.675z"/><path fill-opacity=".32" fill="#919BAA" d="M114.088 93.394L62.93 124.22l27.885-1.375-.185 17.42 53.158-31.151z"/><path d="M133.696 99.761c-.666.391-.646-3.23-1.24-2.646l-22.66-12.556c.01.14-.132 2.335-.132 2.482 0 3.48-2.55 7.82-5.669 9.647v.001l-43.504 25.477 29.577-1.459-.388 17.502 44.016-25.8c3.118-1.829 5.67-6.169 5.67-9.647 0-3.479-2.552-4.828-5.67-3" fill="#FF6485"/><path d="M108.295 83.335c-1.037-.639-2.513-.562-4.148.396a9.885 9.885 0 00-1.944 1.533l-.005.002 29.715 15.727.007-.003c.615-.617 1.277-1.152 1.97-1.558 1.53-.898 2.92-1.025 3.944-.516l-29.54-15.58zM138.034 99.296c.022.013.043.028.064.042l.009-.003-.073-.039z" fill="#CC3C66"/><path fill="#A52B54" d="M102.203 85.264v.631l29.529 15.628v-.625zM131.732 101.523s.266.203.532-.052c-.143-.252-.35-.477-.35-.477l-.182-.096v.625zM90.078 137.543l-.388.233v.84l1.12-.626zM60.491 122.166v.94l29.557-1.446.02-.953z"/><path d="M90.48 138.188l-.39-.664 43.411-25.447c3.022-1.771 5.48-5.95 5.48-9.315 0-1.493-.496-2.598-1.395-3.113-.946-.543-2.293-.38-3.696.444-.03.023-.28.22-1.634 1.386l-.502-.583c1.608-1.384 1.695-1.436 1.746-1.466 1.675-.981 3.262-1.14 4.468-.45 1.15.659 1.782 2.002 1.782 3.782 0 3.608-2.629 8.084-5.86 9.978l-43.41 25.448z" fill="#A52B54"/></g></svg>